<svg width="152" height="152" viewBox="0 0 152 152" fill="none" xmlns="http://www.w3.org/2000/svg">
<path d="M57 126H94V142C94 147.523 89.5228 152 84 152H67C61.4772 152 57 147.523 57 142V126Z" fill="#B85714"/>
<path d="M70.8678 152C70.7438 147.785 70.5485 145.433 72.7333 141H69.0022C68.9567 145.39 69.6086 147.769 70.8678 152Z" fill="#D9D9D9"/>
<path d="M81.1322 152C81.2562 147.785 81.4515 145.433 79.2667 141H82.9978C83.0433 145.39 82.3914 147.769 81.1322 152Z" fill="#D9D9D9"/>
<path d="M130 0C142.15 0 152 9.84974 152 22V130C152 142.15 142.15 152 130 152H98C85.8497 152 76 142.15 76 130C76 142.15 66.1503 152 54 152H22C9.84974 152 0 142.15 0 130V23C1.54632e-06 10.2975 10.2975 3.22129e-07 23 0H130Z" fill="#FB8838"/>
<ellipse cx="19.5" cy="42.5" rx="19.5" ry="42.5" transform="matrix(-1 0 0 1 123 34)" fill="white"/>
<path d="M98.1904 48.0137C92.5347 48.4583 88 61.041 88 76.5C88 92.2401 92.701 105 98.5 105C104.299 105 109 92.2401 109 76.5C109 70.2495 108.256 64.4697 106.999 59.7715C105.831 61.1511 104.247 62 102.5 62C98.9101 62 96 58.4183 96 54C96 51.6174 96.8476 49.4792 98.1904 48.0137Z" fill="black"/>
<ellipse cx="49.5" cy="76.5" rx="19.5" ry="42.5" fill="white"/>
<path d="M54.8096 48.0137C60.4653 48.4583 65 61.041 65 76.5C65 92.2401 60.299 105 54.5 105C48.701 105 44 92.2401 44 76.5C44 70.2495 44.744 64.4697 46.001 59.7715C47.1689 61.1511 48.7534 62 50.5 62C54.0899 62 57 58.4183 57 54C57 51.6174 56.1524 49.4792 54.8096 48.0137Z" fill="black"/>
<circle cx="2" cy="2" r="2" transform="matrix(-1 0 0 1 132 120)" fill="white"/>
<circle cx="2" cy="2" r="2" transform="matrix(-1 0 0 1 129 125)" fill="white"/>
<circle cx="2" cy="2" r="2" transform="matrix(-1 0 0 1 124 122)" fill="white"/>
<circle cx="2" cy="2" r="2" transform="matrix(-1 0 0 1 121 127)" fill="white"/>
<circle cx="22" cy="122" r="2" fill="white"/>
<circle cx="25" cy="127" r="2" fill="white"/>
<circle cx="30" cy="124" r="2" fill="white"/>
<circle cx="33" cy="129" r="2" fill="white"/>
</svg>
